# xmcd
#
# Track frame offsets: 
#        150
#        17791
#        31801
#        47410
#        65501
#        80479
#        96038
#        112848
#        127988
#        142539
#        154907
#        168816
#        183644
#        197755
#        215177
#        228304
#        246348
#        262538
#        276532
#        291358
#        307746
#        321048
#        338821
#
# Disc length: 4731 seconds
#
# Revision: 0
# Processed by: cddbd v1.5.2PL0 Copyright (c) Steve Scherf et al.
# Submitted via: ExactAudioCopy v1.1
#
DISCID=3a127917
DTITLE=Various Artist - Vlaamse Top Hits 2016
DYEAR=2016
DGENRE=Chanson
TTITLE0=Christoff - Ik Ben Geboren Om Van Jou Te Houden
TTITLE1=Laura Lynn - Rechtop In De Wind
TTITLE2=Willy Sommers - Jij Bent Een Engel
TTITLE3=Dana Winner - Ik Laat Je Nu Maar Gaan
TTITLE4=Jo Vally - Als Je Jezelf Door Mijn Ogen Kon Zien
TTITLE5=Lissa Lewis - Sprong In Het Duister
TTITLE6=Bart Kaëll - C'Est Si Bon
TTITLE7=Gene Thomas - Je Weet Niet Half Hoe Mooi Je Bent
TTITLE8=Michel Van Den Brande and Dennie Damaro - Ik Breng Geen Bloemen 
TTITLE8=Voor Je Mee
TTITLE9=Maarten Cox - Als Ze Me Kust
TTITLE10=Luc Steeno - Mijn Armen Om Je Schouders
TTITLE11=Lisa Del Bo - Een Nieuwe Dag
TTITLE12=John Terra - Welkom Rosie
TTITLE13=Sabien Tiels and Marcel De Groot - Is Het Dit Nu?
TTITLE14=Sasha and Davy - Eeuwig Bij Elkaar
TTITLE15=Danny Fabry - Rocky
TTITLE16=Herbert - Topmoment
TTITLE17=Lindsay - Tijd Voor Gezelligheid
TTITLE18=Wim Leys - Ervandoor
TTITLE19=Koen Crucke - Nooit Echt Zomer Zonder Jou
TTITLE20=Will Tura - Waarom Sta Je Stil?
TTITLE21=Clouseau - Droomscenario
TTITLE22=Tourist LeMC Feat. Spiritually Wally - Horizon
EXTD=
EXTT0=
EXTT1=
EXTT2=
EXTT3=
EXTT4=
EXTT5=
EXTT6=
EXTT7=
EXTT8=
EXTT9=
EXTT10=
EXTT11=
EXTT12=
EXTT13=
EXTT14=
EXTT15=
EXTT16=
EXTT17=
EXTT18=
EXTT19=
EXTT20=
EXTT21=
EXTT22=
PLAYORDER=
